PathFileType	4	(X/Y/Z)	 s05c0203.trc
DataRate	CameraRate	NumFrames	NumMarkers	Units	OrigDataRate	OrigDataStartFrame	OrigNumFrames
200	200	4	47	mm	200	1251	2000
Frame#	Time	racr			lacr			c7			jug			rlel			rdr			llel			ldr			s2			lic			ric			lasi			rasi			rpsi			lpsi			rgt			lgt			rth1			rth2			rth3			rth4			rlfc			rsh1			rsh2			rsh3			rsh4			rlmal			rcal			rtoe			rmt5			lth1			lth2			lth4			lth3			llfc			lmfc			lsh1			lsh2			lsh3			lsh4			llmal			lcal			ltoe			lmt5			SBIKE			LBIKE			RBIKE			
		X1	Y1	Z1	X2	Y2	Z2	X3	Y3	Z3	X4	Y4	Z4	X5	Y5	Z5	X6	Y6	Z6	X7	Y7	Z7	X8	Y8	Z8	X9	Y9	Z9	X10	Y10	Z10	X11	Y11	Z11	X12	Y12	Z12	X13	Y13	Z13	X14	Y14	Z14	X15	Y15	Z15	X16	Y16	Z16	X17	Y17	Z17	X18	Y18	Z18	X19	Y19	Z19	X20	Y20	Z20	X21	Y21	Z21	X22	Y22	Z22	X23	Y23	Z23	X24	Y24	Z24	X25	Y25	Z25	X26	Y26	Z26	X27	Y27	Z27	X28	Y28	Z28	X29	Y29	Z29	X30	Y30	Z30	X31	Y31	Z31	X32	Y32	Z32	X33	Y33	Z33	X34	Y34	Z34	X35	Y35	Z35	X36	Y36	Z36	X37	Y37	Z37	X38	Y38	Z38	X39	Y39	Z39	X40	Y40	Z40	X41	Y41	Z41	X42	Y42	Z42	X43	Y43	Z43	X44	Y44	Z44	X45	Y45	Z45	X46	Y46	Z46	X47	Y47	Z47	
1251	6.2550	492.926753	1247.486716	-126.301748	506.041442	1235.332810	-374.257355	480.575804	1328.324333	-257.666032	409.177345	1181.396378	-255.044619	486.130291	1063.274435	84.951195	663.288391	960.907296	-37.991994	483.948807	1068.426761	-625.385704	666.366522	972.687024	-479.104562	-111.730623	1192.701491	-275.835248	41.084080	1186.273064	-420.544954	26.788359	1218.117635	-137.325507	78.754610	1128.938254	-377.052253	71.355447	1158.403462	-162.518336	-76.132949	1243.632474	-243.580761	-70.291789	1238.859235	-328.349629	1.948259	1111.919134	-99.842998	-36.190800	1085.515119	-438.613631	111.016390	1071.847297	-99.094741	199.745423	1065.139834	-107.286585	271.405913	1014.651966	-112.129635	209.433744	1096.938147	-123.844748	404.167101	950.118157	-147.534507	331.359694	873.339700	-118.761752	305.919235	788.536209	-122.687058	245.250326	728.557514	-119.058206	332.549442	772.797413	-145.932403	177.453802	604.357343	-115.787598	100.448695	586.080750	-158.932629	379.072016	488.249969	-148.931009	275.122304	494.383293	-85.143741	42.140691	962.025515	-453.929805	106.429473	905.502880	-450.147723	137.107342	923.829555	-439.837864	133.859040	819.178756	-447.543160	202.316967	691.615166	-416.818809	186.647998	679.032031	-308.786442	141.254397	580.431009	-447.541103	136.306880	493.878657	-438.226684	87.305095	419.326124	-438.649712	165.489347	485.810215	-414.371006	61.112039	302.921188	-434.602066	-6.108865	286.494322	-391.394966	255.585756	150.921800	-393.836069	147.388125	169.988644	-458.154352	-258.652242	895.416781	-280.103163	-43.523294	85.157113	-474.723306	-51.861206	80.294335	-77.251016	
1252	6.2600	491.643522	1246.667623	-125.139387	506.461137	1233.403786	-372.456196	480.114635	1327.767150	-256.360128	408.571243	1180.907372	-254.464843	484.429396	1061.938416	85.300520	662.330036	960.698571	-37.852092	484.939882	1069.304211	-625.791042	666.290266	972.562093	-479.359442	-112.171102	1193.130616	-277.895655	40.576658	1186.227523	-421.243252	26.084724	1218.784423	-138.122964	78.103382	1128.754318	-377.743332	70.625085	1158.638934	-163.052138	-76.351013	1244.277059	-244.436294	-70.469103	1239.197965	-329.290223	0.791228	1112.712875	-100.706695	-36.174567	1085.496001	-439.299117	110.110956	1070.808463	-99.011548	198.765962	1062.679353	-107.307286	269.665725	1011.259322	-111.611066	208.947460	1094.274535	-123.990027	401.197905	943.905932	-147.234897	329.200729	865.947606	-119.223334	304.602759	780.745717	-121.994531	245.118572	719.557827	-118.377513	331.644843	765.377216	-145.053502	180.036213	594.398281	-115.522270	103.880046	572.530446	-158.577591	387.125729	489.148756	-147.790899	282.715028	489.624879	-84.121524	44.903296	962.972949	-453.906543	110.663809	908.259786	-448.812638	140.678140	927.398184	-437.638190	140.362731	822.662007	-445.685894	210.533079	696.017513	-415.534546	194.095501	683.321787	-307.962570	146.690494	586.080018	-446.529617	139.233260	499.612298	-437.140340	88.136284	426.544239	-437.892880	168.031130	490.772214	-413.214714	58.347326	310.995396	-434.026032	-9.412662	297.217893	-390.532662	246.534855	151.012541	-394.162326	139.052232	174.832560	-457.853530	-258.773881	895.492460	-279.990763	-43.513784	85.198334	-474.705769	-51.851069	80.300136	-77.222160	
1253	6.2650	490.499420	1245.938037	-124.088983	507.026454	1231.774453	-370.806151	479.680968	1327.347142	-255.225075	408.211681	1180.452302	-254.085073	482.707913	1060.660072	85.477566	661.379648	960.475419	-37.667335	485.838187	1070.253920	-626.197814	666.142804	972.465708	-479.597714	-112.722030	1193.366414	-278.905699	40.193787	1185.802507	-421.952291	25.392545	1219.128282	-138.822362	77.589201	1128.382720	-378.455873	69.973621	1158.750349	-163.338864	-77.259621	1245.154340	-245.212824	-70.675551	1239.238829	-330.282700	-0.419245	1112.801903	-101.807455	-36.063218	1085.275858	-440.011277	109.200734	1069.159475	-98.962667	197.671023	1059.619088	-107.010460	267.735053	1006.783722	-111.321761	208.403635	1090.682246	-124.196261	398.189977	937.262135	-146.759501	326.102986	857.669468	-118.572166	303.283420	771.822643	-121.089671	245.053691	709.436304	-117.714688	330.637809	757.019179	-144.070342	182.664278	583.574642	-114.971714	107.603100	558.274759	-158.483574	394.575566	488.802413	-146.018034	289.952079	484.047754	-82.912655	48.050300	964.096101	-453.806724	115.437458	911.431264	-447.953380	144.415092	931.104955	-435.364609	147.213994	826.523473	-443.934720	218.817007	700.602382	-414.170726	201.781846	687.724019	-306.843423	152.473992	591.999205	-445.505116	142.548849	505.651460	-436.084857	89.380668	434.142064	-437.194846	170.948805	496.092717	-411.946970	56.225185	319.533299	-433.653019	-12.123747	308.497606	-389.903339	237.582086	151.606413	-394.394768	131.076808	180.134910	-457.586082	-258.711440	895.513332	-279.952133	-43.506871	85.225862	-474.688261	-51.856198	80.291484	-77.210831	
1254	6.2700	489.408860	1245.439291	-123.081505	507.649377	1230.399696	-369.356010	479.281311	1327.063064	-254.149481	407.954562	1180.104070	-253.688791	480.899551	1059.505244	85.523822	660.408088	960.213030	-37.366895	486.615947	1071.177821	-626.384806	665.860175	972.263102	-479.680812	-113.275339	1193.320351	-280.140224	39.747769	1185.087103	-422.461679	24.698076	1219.170249	-139.573580	76.984489	1127.773732	-378.865627	69.277092	1158.570432	-163.581480	-77.678452	1245.111147	-245.944356	-70.935086	1238.960940	-331.241779	-1.858589	1112.363147	-102.844329	-35.732738	1084.803847	-440.818546	108.174019	1066.631482	-98.879733	196.474962	1055.700613	-106.624324	265.738129	1001.576590	-111.098878	207.839776	1086.564541	-124.094187	394.673748	929.157969	-145.845146	322.931676	848.307492	-117.493905	302.000932	761.938053	-120.144573	245.099316	698.269446	-116.988003	329.579680	747.701170	-142.844634	185.593275	572.011550	-114.509453	111.840467	543.446295	-158.633446	401.638285	487.341803	-143.856049	296.775698	477.306345	-81.599280	51.626583	965.519828	-453.434486	120.192535	914.663176	-446.387763	148.292582	935.020488	-432.935398	154.236020	830.552942	-442.230208	227.009992	705.499472	-412.895212	209.529375	692.181035	-305.595941	158.539015	598.107830	-444.413486	146.146991	512.066238	-435.122878	91.022928	442.088496	-436.624383	174.132207	501.658194	-410.739511	54.505419	328.328165	-433.547445	-14.335399	319.976031	-389.518453	228.709221	152.839636	-394.507478	123.448771	185.942645	-457.336447	-258.726288	895.508950	-279.791453	-43.491293	85.235939	-474.681121	-51.853815	80.258154	-77.209346	
